<?xml version="1.0" ?><svg viewBox="0 0 128 128" xmlns="http://www.w3.org/2000/svg"><title/><g data-name="Lamp DIsco" id="7ce30a26-bea8-41c3-b2b8-a93ac31f813c"><path d="M44.76,110a39.61,39.61,0,0,1-5.59-3.84A49.41,49.41,0,0,1,35,102.24a26.59,26.59,0,0,1-2.4-2.89,37.13,37.13,0,0,1-3.46-5.49,35.07,35.07,0,0,1-2.52-6,37.6,37.6,0,0,1-1.52-6.36,41.68,41.68,0,0,1-.46-6.11,55.2,55.2,0,0,1,.52-6.36A39.88,39.88,0,0,1,28,59.64,35.38,35.38,0,0,1,31,54,39.49,39.49,0,0,1,54.58,37a37.54,37.54,0,0,1,14.76-.75,38.47,38.47,0,0,1,6.52,1.55,39.13,39.13,0,0,1,7,3.13,30.75,30.75,0,0,0-19-3.67,30.75,30.75,0,0,1,19,3.67,49.24,49.24,0,0,1,4.47,3A38.81,38.81,0,0,1,92.5,48.6a38,38,0,0,1,4,5.17c.57.86,1.27,2.05,1.76,3s.94,1.9,1.33,2.73a39.85,39.85,0,0,1,2.83,9.48c.12.94.32,2.2.4,3.14s.14,2.45.15,3.49a48.88,48.88,0,0,1-.52,6.37,31.11,31.11,0,0,1-.92,4.19,38.8,38.8,0,0,1-2.21,6,37.39,37.39,0,0,1-3.13,5.54,38,38,0,0,1-3.95,4.95,39.38,39.38,0,0,1-20,11.5A38.46,38.46,0,0,1,44.76,110Z" fill="none"/><path d="M76.43,38l-.06,0,.51.18Z" fill="#273042"/><path d="M102.92,77.43l.08-1.87c0-.61,0-1.34-.07-2l0-.91,0-.25v-.29l-.1-.83c-.06-.59-.12-1.18-.21-1.78l.15,1.3-.23-1.83c-.22-1.28-.46-2.36-.69-3.28v-.06l0-.06c-.32-1.23-.63-2.18-.87-2.9-.14-.42-.35-1-.5-1.37l.09.27a38.36,38.36,0,0,0-7.94-12.9h0l0,0c-.5-.53-1-1-1.54-1.56l-.46-.47A40.09,40.09,0,0,0,84.56,42l.48.29-.77-.48-.67-.41L82.91,41l-.2-.11,0,0L82,40.5h0l-.51-.25-1.66-.83-2-.85c-.45-.18-1-.38-1.54-.56l.05,0-.5-.17-1.6-.49L72.83,37l-.32-.07-.25-.06-.7-.16-.44-.09a36.63,36.63,0,0,0-11.69-.45l-.63.08-.23,0-.8.12-1.06.19-.46.09-.11,0,.07,0-.12,0-.09,0-.72.15-.2.06.64-.14-.65.15h0l-.07,0-.31.08h0l-.09,0h0c-1.18.3-2.13.59-3,.9l-.38.13-.9.31L48.79,39a26.08,26.08,0,0,0-2.69,1.29c-.43.22-.85.44-1.27.68l-.27.14-.73.45a39.07,39.07,0,0,0-4.28,3l-.18.13L39,45c-.54.45-1.07.9-1.57,1.37l-.12.11-.73.72c-.5.49-1,1-1.44,1.49l-.33.35-.32.39q-.65.74-1.25,1.5l-.28.34-.43.58c-.49.66-1,1.32-1.39,2L31,54l0,.07a37.47,37.47,0,0,0-5.68,14.64v.13c0,.06,0,.13,0,.2l0,.14c-.14,1-.26,2.11-.37,3l-.13,3.22c.06,1.84.25,4.29.46,6.11l.6,3.08c.24,1,.64,2.3.92,3.28l.24.64q.31.9.66,1.77l.17.46c.14.34.32.72.5,1.1s.36.78.55,1.16l.39.82.58,1,.32.57.59,1c.56.88,1.37,2,2,2.87l1.86,2.29c.74.82,1.78,1.87,2.55,2.65l2.14,1.89c1,.77,2.33,1.75,3.35,2.47l.87.53c.51.32,1,.61,1.36.84h0a37,37,0,0,0,4.81,2.31l.25.11.29.11.27.1,1.43.51,1.6.49,1.43.38,1.28.29,1.13.22,1.06.17,1,.13.92.1.86.07.85.05.82,0,.82,0h.82l.82,0,.86,0,.88-.06.55-.05h0l.39,0,1-.12.71-.11.49-.08c.75-.13,1.43-.26,2-.4l.18,0,.06,0c1.17-.27,2.14-.55,3-.84l.36-.11.75-.24,1.41-.52a30.53,30.53,0,0,0,3.2-1.45l.86-.44.37-.19,2-1.15,0,0,.23-.15c.54-.36,1.13-.76,1.71-1.18.28-.2.56-.39.83-.6l.47-.34,2.08-1.73a31.78,31.78,0,0,0,2.38-2.31l.21-.21,1.9-2.18.75-1,.48-.69,0,0,.54-.74.26-.36.14-.23.27-.39-.21.3,1.38-2.22c.63-1.12,1.11-2.07,1.5-2.91l0-.09,0-.08c.45-1,.78-1.81,1.08-2.58l.22-.6c.26-.7.42-1.18.59-1.74a34.68,34.68,0,0,0,1-3.82l.05-.25c0-.17.07-.39.1-.56l0,.1c0-.17.06-.33.09-.51s0-.12,0-.18l0-.17c.14-.87.23-1.52.29-2.28l0-.2V79l0-.25,0-.74c0-.69.08-1.38.1-2ZM86.77,43.6a34.5,34.5,0,0,1,4.8,4.15A44.15,44.15,0,0,0,86.77,43.6Z" fill="#273042"/><path d="M71.19,37a5.79,5.79,0,0,1,.73.34,32.58,32.58,0,0,0-8,0A27,27,0,0,1,71.19,37" fill="#323a4a"/><path d="M69.37,36.45a12.58,12.58,0,0,1,1.59.45,25.41,25.41,0,0,0-7.06.41,15.76,15.76,0,0,1,5.47-.85" fill="#323a4a"/><path d="M67.13,36.09c.69.07,1.34.17,1.95.29a14.24,14.24,0,0,0-5.17.91,6.57,6.57,0,0,1,3.22-1.21" fill="#323a4a"/><path d="M64.62,35.93c.74,0,1.46.06,2.16.13a5.48,5.48,0,0,0-2.87,1.24c.25-.81.49-1.26.71-1.37" fill="#323a4a"/><path d="M62,36c.74,0,1.49-.06,2.23-.05a3.74,3.74,0,0,0-.34,1.38A3.33,3.33,0,0,0,62,36" fill="#323a4a"/><path d="M59.49,36.24l.49-.07c.55-.07,1.11-.13,1.68-.17a4,4,0,0,1,2.26,1.3,10.84,10.84,0,0,0-4.42-1.06" fill="#323a4a"/><path d="M57.39,36.69a15.78,15.78,0,0,1,1.76-.4,12.3,12.3,0,0,1,4.76,1,21.83,21.83,0,0,0-6.52-.61" fill="#323a4a"/><path d="M55.91,37.28a6.88,6.88,0,0,1,1.23-.51,23.44,23.44,0,0,1,6.77.53,32.39,32.39,0,0,0-8,0" fill="#323a4a"/><path d="M55.11,38a2,2,0,0,1,.65-.58,33.68,33.68,0,0,1,8.15-.07,39.55,39.55,0,0,0-8.8.65" fill="#323a4a"/><path d="M55,38.67a.72.72,0,0,1,0-.62,40.17,40.17,0,0,1,8.86-.76A41.36,41.36,0,0,0,55,38.67" fill="#323a4a"/><path d="M55.74,39.39a1.9,1.9,0,0,1-.65-.61,41.34,41.34,0,0,1,8.82-1.48,37.21,37.21,0,0,0-8.17,2.09" fill="#323a4a"/><path d="M57.19,40a7,7,0,0,1-1.29-.54,36.18,36.18,0,0,1,8-2.19A28.76,28.76,0,0,0,57.19,40" fill="#323a4a"/><path d="M59.18,40.5a16.07,16.07,0,0,1-1.73-.39,27.43,27.43,0,0,1,6.46-2.8,20,20,0,0,0-4.73,3.2" fill="#323a4a"/><path d="M61.53,40.79c-.71-.06-1.39-.14-2-.24a18.93,18.93,0,0,1,4.41-3.25,16,16,0,0,0-2.37,3.49" fill="#323a4a"/><path d="M64.09,40.88c-.75,0-1.48,0-2.2-.07a16.64,16.64,0,0,1,2-3.51c.06.9.13,2.11.18,3.58" fill="#323a4a"/><path d="M66.69,40.76c-.73.07-1.48.1-2.23.12-.18-1.47-.36-2.68-.56-3.58a15.88,15.88,0,0,1,2.79,3.46" fill="#323a4a"/><path d="M69.12,40.43q-.6.12-1.28.21l-.78.09a16.17,16.17,0,0,0-3.15-3.43,21.82,21.82,0,0,1,5.21,3.12" fill="#323a4a"/><path d="M71,39.92a12.29,12.29,0,0,1-1.58.44,23.08,23.08,0,0,0-5.52-3.06A30.91,30.91,0,0,1,71,39.92" fill="#323a4a"/><path d="M72.26,39.3a4.69,4.69,0,0,1-1,.54,32.16,32.16,0,0,0-7.32-2.53,38.37,38.37,0,0,1,8.35,2" fill="#323a4a"/><path d="M72.81,38.6a1.24,1.24,0,0,1-.43.6,39.32,39.32,0,0,0-8.47-1.9,41.31,41.31,0,0,1,8.91,1.3" fill="#323a4a"/><path d="M72.62,37.88a.82.82,0,0,1,.21.62,41.45,41.45,0,0,0-8.93-1.2c7.06,0,8.71.57,8.72.57" fill="#323a4a"/><path d="M71.93,37.32a2.71,2.71,0,0,1,.61.45,37.86,37.86,0,0,0-8.63-.47,32.58,32.58,0,0,1,8,0" fill="#323a4a"/><path d="M77.92,38.59c.62.26,1.45.6,2.06.88q.46.21.86.44a29.91,29.91,0,0,0-7.58-2.38,6.76,6.76,0,0,0-.85-.4,24.46,24.46,0,0,1,5.51,1.46" fill="#323a4a"/><path d="M71.91,36.76c.71.17,1.65.4,2.35.59s1.87.59,2.66.86A22.92,22.92,0,0,0,72.15,37a14.68,14.68,0,0,0-1.86-.52,13.67,13.67,0,0,1,1.62.25" fill="#323a4a"/><path d="M68,36.11l1.41.18,1.9.33a12.21,12.21,0,0,0-1.32-.19c-.71-.14-1.47-.26-2.27-.34l.28,0" fill="#323a4a"/><path d="M64.75,35.9l1,0,1.69.12h-.19c-.81-.08-1.66-.13-2.52-.15h0" fill="#323a4a"/><path d="M61.64,36l.85,0c1.09,0,1.09,0,1.64,0h.18c-.86,0-1.74,0-2.61.06h-.07" fill="#323a4a"/><path d="M57.8,36.38l1-.15c1.31-.16,1.31-.16,2-.21l.42,0h.1c-.66,0-1.32.11-2,.2l-.57.08a8.94,8.94,0,0,0-.94.12" fill="#323a4a"/><path d="M52.28,37.7a42.87,42.87,0,0,1,4.78-1.19,10.34,10.34,0,0,1,1.29-.18,18.42,18.42,0,0,0-2.06.47,19.47,19.47,0,0,0-4,.91" fill="#323a4a"/><path d="M47,39.81q.36-.2.78-.39l1-.44c.8-.32,1.86-.73,2.67-1A21,21,0,0,1,56,36.88a8,8,0,0,0-1.43.6A29.71,29.71,0,0,0,47,39.81" fill="#323a4a"/><path d="M45.31,41.24A4.23,4.23,0,0,1,46.68,40a31,31,0,0,1,7.71-2.43,2.34,2.34,0,0,0-.76.68,37.56,37.56,0,0,0-8.32,3" fill="#323a4a"/><path d="M45.15,42.76a1.52,1.52,0,0,1,0-1.3,38.39,38.39,0,0,1,8.38-3.07.84.84,0,0,0,0,.72,41.4,41.4,0,0,0-8.4,3.66" fill="#323a4a"/><path d="M46.64,44.28A4,4,0,0,1,45.26,43a41.58,41.58,0,0,1,8.35-3.76,2.21,2.21,0,0,0,.76.72,40.76,40.76,0,0,0-7.73,4.34" fill="#323a4a"/><path d="M49.72,45.62A14.8,14.8,0,0,1,47,44.49a40.34,40.34,0,0,1,7.57-4.43,8.18,8.18,0,0,0,1.5.63,37.11,37.11,0,0,0-6.35,4.94" fill="#d64f4f"/><path d="M53.92,46.62a34,34,0,0,1-3.66-.83,36.56,36.56,0,0,1,6.11-5,18.76,18.76,0,0,0,2,.46,34.68,34.68,0,0,0-4.47,5.38" fill="#323a4a"/><path d="M58.89,47.23c-1.5-.12-2.94-.29-4.3-.5a34.86,34.86,0,0,1,4.17-5.43c.75.12,1.55.21,2.37.28a45.34,45.34,0,0,0-2.25,5.66" fill="#323a4a"/><path d="M64.29,47.43c-1.57,0-3.14,0-4.65-.14a50.93,50.93,0,0,1,1.91-5.68c.84.06,1.7.08,2.57.08.06,1.65.12,3.58.17,5.75" fill="#323a4a"/><path d="M69.79,47.18c-1.55.14-3.13.22-4.71.24-.16-2.16-.34-4.09-.52-5.74.87,0,1.75-.06,2.6-.13a41,41,0,0,1,2.63,5.63" fill="#73c9ff"/><path d="M74.92,46.46q-1.27.25-2.71.45l-1.65.2a38.47,38.47,0,0,0-3-5.6l.91-.11q.8-.11,1.5-.25a34.8,34.8,0,0,1,4.93,5.31" fill="#323a4a"/><path d="M78.9,45.39a26,26,0,0,1-3.33.93,35.07,35.07,0,0,0-5.21-5.25,14.35,14.35,0,0,0,1.84-.52,38,38,0,0,1,6.71,4.83" fill="#323a4a"/><path d="M81.54,44.08a9.91,9.91,0,0,1-2.18,1.14,38.6,38.6,0,0,0-6.92-4.76,5.48,5.48,0,0,0,1.2-.63,41.17,41.17,0,0,1,7.89,4.25" fill="#323a4a"/><path d="M82.72,42.6a2.61,2.61,0,0,1-.92,1.27,41.4,41.4,0,0,0-8-4.15,1.44,1.44,0,0,0,.51-.7,41.12,41.12,0,0,1,8.42,3.59" fill="#323a4a"/><path d="M82.32,41.07a1.74,1.74,0,0,1,.44,1.31,40.76,40.76,0,0,0-8.44-3.49,1,1,0,0,0-.24-.73,36.57,36.57,0,0,1,8.24,2.9" fill="#323a4a"/><path d="M80.84,39.91a5.72,5.72,0,0,1,1.29,1A35.54,35.54,0,0,0,74,38.05a3.16,3.16,0,0,0-.71-.53,29.91,29.91,0,0,1,7.58,2.38" fill="#323a4a"/><path d="M82.91,41,82,40.49l-.39-.21,1.28.7" fill="#323a4a"/><path d="M44.79,41l1.45-.78-.39.2L44.79,41" fill="#323a4a"/><path d="M37,46.9a4.54,4.54,0,0,1,.81-.92,38.59,38.59,0,0,1,4.72-3.65l.8-.51q1-.65,2.14-1.22A4.52,4.52,0,0,0,44,41.91a36.55,36.55,0,0,0-7,5" fill="#323a4a"/><path d="M36.79,49.09a2.2,2.2,0,0,1,.06-1.89,37.39,37.39,0,0,1,7-5.06,1.63,1.63,0,0,0,0,1.39,41.41,41.41,0,0,0-7.06,5.55" fill="#323a4a"/><path d="M38.95,51.28a5.79,5.79,0,0,1-2-1.87,41.92,41.92,0,0,1,7-5.64,4.29,4.29,0,0,0,1.48,1.39,44.19,44.19,0,0,0-6.5,6.12" fill="#323a4a"/><path d="M43.39,53.23a21.39,21.39,0,0,1-3.93-1.64,44.48,44.48,0,0,1,6.37-6.2,15.82,15.82,0,0,0,2.91,1.21,46.59,46.59,0,0,0-5.34,6.63" fill="#323a4a"/><path d="M49.46,54.66a49.08,49.08,0,0,1-5.29-1.2,47.12,47.12,0,0,1,5.14-6.69,36.31,36.31,0,0,0,3.91.89,53.86,53.86,0,0,0-3.76,7" fill="#323a4a"/><path d="M56.64,55.55c-2.16-.17-4.25-.41-6.21-.72a56,56,0,0,1,3.51-7c1.45.23,3,.41,4.6.54-.69,2.21-1.32,4.64-1.9,7.24" fill="#323a4a"/><path d="M64.46,55.84c-2.27,0-4.53-.06-6.73-.21.49-2.6,1-5,1.61-7.26,1.62.11,3.29.16,5,.15.05,2.23.1,4.69.14,7.31" fill="#de5050"/><path d="M72.4,55.47c-2.24.2-4.53.32-6.8.35-.13-2.62-.28-5.07-.43-7.31,1.69,0,3.38-.11,5-.26.8,2.2,1.54,4.62,2.21,7.21" fill="#323a4a"/><path d="M79.82,54.44q-1.83.36-3.92.64-1.18.16-2.38.28A70.44,70.44,0,0,0,71,48.18L72.78,48q1.55-.21,2.9-.48a51.17,51.17,0,0,1,4.14,6.95" fill="#323a4a"/><path d="M85.57,52.9a37.53,37.53,0,0,1-4.82,1.35,49.88,49.88,0,0,0-4.38-6.9,27.76,27.76,0,0,0,3.56-1,45.88,45.88,0,0,1,5.63,6.54" fill="#fbc46e"/><path d="M89.39,51a14.32,14.32,0,0,1-3.14,1.65,45.52,45.52,0,0,0-5.81-6.48,10.6,10.6,0,0,0,2.33-1.22,43.79,43.79,0,0,1,6.63,6" fill="#323a4a"/><path d="M91.09,48.86a3.77,3.77,0,0,1-1.33,1.83,43.47,43.47,0,0,0-6.72-6,2.79,2.79,0,0,0,1-1.36,40.83,40.83,0,0,1,7.07,5.5" fill="#323a4a"/><path d="M90.51,46.65a2.51,2.51,0,0,1,.64,1.9,40.24,40.24,0,0,0-7.09-5.41,1.86,1.86,0,0,0-.47-1.4,35.58,35.58,0,0,1,6.92,4.92" fill="#323a4a"/><path d="M82.91,41a40.06,40.06,0,0,1,7,5.1l.28.27a34.63,34.63,0,0,0-6.85-4.84,6.11,6.11,0,0,0-1.37-1l.89.49" fill="#323a4a"/><path d="M30.84,54.24c.63-.91,1.45-2.14,2.12-3C34,50,35.49,48.29,36.64,47.1a4.46,4.46,0,0,0-.65.79,35.7,35.7,0,0,0-5.14,6.36" fill="#323a4a"/><path d="M30.35,57.27a2.72,2.72,0,0,1,.08-2.33,36.45,36.45,0,0,1,5.37-6.73,2.28,2.28,0,0,0-.06,2,40.33,40.33,0,0,0-5.38,7.1" fill="#323a4a"/><path d="M33,60a7.17,7.17,0,0,1-2.47-2.32,41,41,0,0,1,5.35-7.16A6,6,0,0,0,38,52.44,45.41,45.41,0,0,0,33,60" fill="#1bcfaa"/><path d="M38.52,62.38a26.46,26.46,0,0,1-4.86-2,46.28,46.28,0,0,1,4.85-7.6,22.22,22.22,0,0,0,4.09,1.7,53.2,53.2,0,0,0-4.07,7.92" fill="#323a4a"/><path d="M46,64.16a60.72,60.72,0,0,1-6.54-1.49,54.78,54.78,0,0,1,3.92-8A51,51,0,0,0,48.9,56,70.24,70.24,0,0,0,46,64.16" fill="#d64f4f"/><path d="M54.91,65.26c-2.68-.21-5.26-.51-7.68-.9a74.48,74.48,0,0,1,2.68-8.24c2,.32,4.2.58,6.45.75-.55,2.65-1,5.46-1.45,8.38" fill="#fbc46e"/><path d="M64.58,65.61c-2.81,0-5.61-.08-8.32-.26.35-2.92.76-5.74,1.23-8.4,2.28.15,4.62.22,7,.21,0,2.67.07,5.5.1,8.44" fill="#323a4a"/><path d="M74.4,65.16c-2.77.25-5.6.39-8.42.44-.09-2.93-.2-5.76-.33-8.44,2.37,0,4.74-.16,7.07-.37.64,2.65,1.2,5.45,1.67,8.37" fill="#1bcfaa"/><path d="M83.58,63.88q-2.26.45-4.85.8-1.46.2-2.95.35c-.53-2.91-1.17-5.71-1.89-8.34q1.25-.13,2.47-.29,2.17-.29,4.07-.67a64.66,64.66,0,0,1,3.14,8.16" fill="#323a4a"/><path d="M90.69,62a46.43,46.43,0,0,1-6,1.67,61.78,61.78,0,0,0-3.33-8.12,39,39,0,0,0,5-1.4A50.93,50.93,0,0,1,90.69,62" fill="#323a4a"/><path d="M95.42,59.62a17.72,17.72,0,0,1-3.89,2,49.75,49.75,0,0,0-4.42-7.8,14.88,14.88,0,0,0,3.27-1.71,44.38,44.38,0,0,1,5,7.48" fill="#de5050"/><path d="M97.52,57a4.67,4.67,0,0,1-1.64,2.27,43.65,43.65,0,0,0-5.11-7.42,3.92,3.92,0,0,0,1.38-1.9A39.65,39.65,0,0,1,97.52,57" fill="#323a4a"/><path d="M94.29,50.68l.52.66c.71,1,1.66,2.33,2.32,3.37a2.88,2.88,0,0,1,.47,1.89,39,39,0,0,0-5.39-7,2.61,2.61,0,0,0-.67-2,35.16,35.16,0,0,1,2.75,3" fill="#323a4a"/><path d="M91.93,48l-.68-.69-.1-.1.78.79" fill="#323a4a"/><path d="M26.26,66.86a3,3,0,0,1-.14-2l.73-2.35c.5-1.29,1.19-3,1.76-4.26q.5-1,1.07-2a2.78,2.78,0,0,0-.08,2.38,38.51,38.51,0,0,0-3.35,8.3" fill="#323a4a"/><path d="M29.26,69.9a8,8,0,0,1-2.77-2.6A39.11,39.11,0,0,1,29.81,59a7.32,7.32,0,0,0,2.53,2.37,44.06,44.06,0,0,0-3.09,8.57" fill="#323a4a"/><path d="M35.42,72.6A29.68,29.68,0,0,1,30,70.32a45.19,45.19,0,0,1,3-8.61,27,27,0,0,0,5,2.07,54.63,54.63,0,0,0-2.54,8.81" fill="#323a4a"/><path d="M43.84,74.59a68.09,68.09,0,0,1-7.34-1.67,56.82,56.82,0,0,1,2.44-8.84,62,62,0,0,0,6.69,1.52,77.46,77.46,0,0,0-1.79,9" fill="#1bcfaa"/><path d="M53.81,75.82c-3-.24-5.9-.57-8.62-1a83,83,0,0,1,1.67-9c2.48.39,5.12.7,7.85.92-.39,3-.69,6-.91,9.1" fill="#73c9ff"/><path d="M64.65,76.22c-3.16,0-6.29-.09-9.33-.29.18-3.09.45-6.15.77-9.11,2.77.18,5.63.27,8.5.26,0,3,0,6,.06,9.13" fill="#323a4a"/><path d="M75.66,75.71c-3.11.28-6.28.44-9.44.49,0-3.1-.11-6.16-.2-9.13,2.88,0,5.77-.19,8.6-.45.44,3,.79,6,1,9.09" fill="#de5050"/><path d="M86,74.28q-2.54.5-5.44.89-1.63.22-3.3.39c-.27-3.09-.67-6.13-1.17-9.07q1.52-.16,3-.36,2.64-.36,5-.81a70.14,70.14,0,0,1,1.95,9" fill="#73c9ff"/><path d="M93.93,72.14A52.07,52.07,0,0,1,87.25,74a66.31,66.31,0,0,0-2.06-8.94,47.45,47.45,0,0,0,6.09-1.71,51.5,51.5,0,0,1,2.65,8.77" fill="#1bcfaa"/><path d="M99.23,69.5a19.87,19.87,0,0,1-4.36,2.29A49.86,49.86,0,0,0,92.13,63a18.11,18.11,0,0,0,4-2.08,42.79,42.79,0,0,1,3.12,8.54" fill="#d64f4f"/><path d="M101.59,66.55a5.23,5.23,0,0,1-1.84,2.54,41.92,41.92,0,0,0-3.17-8.5,4.77,4.77,0,0,0,1.68-2.32,37.94,37.94,0,0,1,3.33,8.27" fill="#323a4a"/><path d="M98.29,56.72a38,38,0,0,1,2.57,5.89l.72,2.35a3,3,0,0,1,.09,1.15,37.44,37.44,0,0,0-3.34-8.24,2.89,2.89,0,0,0-.39-1.79l.35.64" fill="#323a4a"/><path d="M24.94,77.46a3.23,3.23,0,0,1-.26-1.2v-.82a38.09,38.09,0,0,1,.57-6.64l.48-2.39a3,3,0,0,0,.17,1.92,37.53,37.53,0,0,0-1,8.37q0,.38,0,.76" fill="#323a4a"/><path d="M28,80.6a8.31,8.31,0,0,1-2.87-2.69q0-.38,0-.76a37.89,37.89,0,0,1,1-8.38,8.11,8.11,0,0,0,2.8,2.63A41.76,41.76,0,0,0,28,79.84q0,.38,0,.76" fill="#323a4a"/><path d="M34.42,83.39A30.7,30.7,0,0,1,28.78,81q0-.38,0-.76a42.76,42.76,0,0,1,.87-8.46,30,30,0,0,0,5.51,2.29,51.73,51.73,0,0,0-.73,8.52q0,.38,0,.76" fill="#73c9ff"/><path d="M43.13,85.45a70.45,70.45,0,0,1-7.59-1.73q0-.38,0-.76a53.88,53.88,0,0,1,.7-8.52,68.75,68.75,0,0,0,7.41,1.68,74.36,74.36,0,0,0-.52,8.57q0,.38,0,.76" fill="#323a4a"/><path d="M53.44,86.72c-3.11-.24-6.1-.59-8.92-1q0-.38,0-.76A79.81,79.81,0,0,1,45,76.35c2.74.44,5.67.78,8.7,1-.17,2.85-.26,5.73-.27,8.6q0,.38,0,.76" fill="#d64f4f"/><path d="M64.65,87.13c-3.27,0-6.51-.09-9.65-.3q0-.38,0-.76c0-2.87.08-5.75.23-8.6,3.07.2,6.23.3,9.42.29,0,2.86,0,5.74,0,8.61q0,.38,0,.76" fill="#323a4a"/><path d="M76.05,86.61c-3.22.29-6.5.46-9.77.51q0-.38,0-.76c0-2.87,0-5.75,0-8.61,3.19,0,6.39-.21,9.53-.49.19,2.85.29,5.73.28,8.59q0,.38,0,.76" fill="#fbc46e"/><path d="M86.7,85.13q-2.63.52-5.63.92-1.69.23-3.42.41,0-.38,0-.76c0-2.87-.11-5.74-.32-8.59q1.68-.17,3.34-.4,2.93-.39,5.49-.9a67.09,67.09,0,0,1,.54,8.56q0,.38,0,.76" fill="#d64f4f"/><path d="M95,82.91A53.87,53.87,0,0,1,88,84.85q0-.38,0-.76a63.28,63.28,0,0,0-.57-8.55,52.57,52.57,0,0,0,6.75-1.89,48.69,48.69,0,0,1,.74,8.5q0,.38,0,.76" fill="#323a4a"/><path d="M100.44,80.18a20.56,20.56,0,0,1-4.51,2.37q0-.38,0-.76a47.11,47.11,0,0,0-.76-8.5A20.07,20.07,0,0,0,99.57,71a40.66,40.66,0,0,1,.87,8.44q0,.38,0,.76" fill="#323a4a"/><path d="M102.88,77.13A5.42,5.42,0,0,1,101,79.76q0-.38,0-.76a40,40,0,0,0-.89-8.43A5.29,5.29,0,0,0,102,68a37.24,37.24,0,0,1,.93,8.36q0,.38,0,.76" fill="#323a4a"/><path d="M102.46,68.92a38.47,38.47,0,0,1,.54,6.64v.82l0,.29q0-.38,0-.76a37,37,0,0,0-.94-8.35,3,3,0,0,0-.06-1l.47,2.39" fill="#323a4a"/><path d="M26.64,87.83q-.06-.14-.11-.29l-.81-2.92a38.28,38.28,0,0,1-1-6.7A3.26,3.26,0,0,0,25,79a36.33,36.33,0,0,0,1.63,8.84" fill="#323a4a"/><path d="M29.6,90.84a8,8,0,0,1-2.74-2.57,36.29,36.29,0,0,1-1.63-8.82,8.3,8.3,0,0,0,2.87,2.69,37.46,37.46,0,0,0,1.5,8.7" fill="#323a4a"/><path d="M35.7,93.51a29.35,29.35,0,0,1-5.4-2.25,37.94,37.94,0,0,1-1.47-8.69,30.65,30.65,0,0,0,5.64,2.35,43.12,43.12,0,0,0,1.23,8.59" fill="#de5050"/><path d="M44,95.48a67.34,67.34,0,0,1-7.26-1.65,44.49,44.49,0,0,1-1.18-8.57A70.34,70.34,0,0,0,43.16,87a58.43,58.43,0,0,0,.86,8.5" fill="#323a4a"/><path d="M53.88,96.7c-3-.23-5.83-.57-8.52-1a62.29,62.29,0,0,1-.8-8.49c2.81.45,5.8.79,8.9,1,0,3,.19,5.85.42,8.44" fill="#323a4a"/><path d="M64.6,97.09c-3.12,0-6.22-.08-9.23-.28-.2-2.59-.32-5.42-.36-8.44,3.14.21,6.38.31,9.64.3,0,3,0,5.84-.05,8.43" fill="#1bcfaa"/><path d="M75.5,96.59c-3.07.28-6.21.44-9.34.48.06-2.59.1-5.41.12-8.43,3.27-.05,6.54-.22,9.75-.51-.07,3-.25,5.85-.54,8.45" fill="#323a4a"/><path d="M85.67,95.17q-2.51.5-5.38.88-1.62.22-3.27.39c.32-2.6.53-5.43.6-8.46q1.72-.18,3.41-.4,3-.4,5.62-.92a53.36,53.36,0,0,1-1,8.51" fill="#73c9ff"/><path d="M93.56,93.05A51.5,51.5,0,0,1,87,94.9a50.75,50.75,0,0,0,1-8.52,53.78,53.78,0,0,0,6.9-1.93,41.24,41.24,0,0,1-1.34,8.61" fill="#1bcfaa"/><path d="M98.8,90.44a19.65,19.65,0,0,1-4.31,2.26,40.31,40.31,0,0,0,1.38-8.62,20.53,20.53,0,0,0,4.51-2.36,37,37,0,0,1-1.57,8.72" fill="#323a4a"/><path d="M101.65,85.81l-.55,1.86A5.35,5.35,0,0,1,99.32,90a36.73,36.73,0,0,0,1.59-8.74,5.41,5.41,0,0,0,1.9-2.63,36.51,36.51,0,0,1-1.17,7.14" fill="#323a4a"/><path d="M102.72,80.23q.12-1,.18-2,0-.08,0-.17l-.2,2.17" fill="#323a4a"/><path d="M27.76,90.88l0-.1L27,89.07l.06.15q.3.84.65,1.66" fill="#323a4a"/><path d="M33.65,99.62a7.49,7.49,0,0,1-2.27-2l-.72-1.11-.75-1.25a35.63,35.63,0,0,1-2.59-5.58A7.85,7.85,0,0,0,30,92.19a33.73,33.73,0,0,0,3.61,7.43" fill="#323a4a"/><path d="M39,102a25.86,25.86,0,0,1-4.75-2,33.54,33.54,0,0,1-3.54-7.39,29,29,0,0,0,5.33,2.22A33.71,33.71,0,0,0,39,102" fill="#323a4a"/><path d="M46.36,103.71a59.34,59.34,0,0,1-6.4-1.45,34,34,0,0,1-2.85-7.11,66.48,66.48,0,0,0,7.17,1.63,39.22,39.22,0,0,0,2.08,6.94" fill="#fbc46e"/><path d="M55,104.78c-2.62-.2-5.14-.5-7.51-.88A41,41,0,0,1,45.59,97c2.65.42,5.48.75,8.41,1a67,67,0,0,0,1,6.81" fill="#de5050"/><path d="M64.49,105.13c-2.75,0-5.48-.07-8.13-.25-.36-2-.66-4.29-.88-6.8,3,.2,6,.29,9.11.28,0,2.5-.06,4.77-.1,6.77" fill="#d64f4f"/><path d="M74.09,104.69c-2.71.24-5.47.38-8.23.43.11-2,.19-4.27.26-6.77,3.09,0,6.18-.21,9.22-.48a58,58,0,0,1-1.25,6.82" fill="#323a4a"/><path d="M83.06,103.44q-2.21.44-4.74.78-1.42.19-2.88.34a52.39,52.39,0,0,0,1.42-6.84q1.63-.17,3.23-.38,2.83-.38,5.31-.87a37.07,37.07,0,0,1-2.33,7" fill="#d64f4f"/><path d="M90,101.57a45.38,45.38,0,0,1-5.83,1.63,36.05,36.05,0,0,0,2.47-7,50.84,50.84,0,0,0,6.53-1.83,33.4,33.4,0,0,1-3.17,7.2" fill="#323a4a"/><path d="M94.63,99.27a17.32,17.32,0,0,1-3.8,2A33.32,33.32,0,0,0,94.09,94a19.4,19.4,0,0,0,4.26-2.23,34,34,0,0,1-3.72,7.47" fill="#73c9ff"/><path d="M100.52,89.34a37.72,37.72,0,0,1-2.72,5.82c-.48.77-1.08,1.81-1.59,2.56a5.94,5.94,0,0,1-1.12,1.2,34.3,34.3,0,0,0,3.78-7.52,5.43,5.43,0,0,0,1.71-2.21l-.05.15" fill="#323a4a"/><path d="M39.81,106.61a8.36,8.36,0,0,1-.91-.65,38.42,38.42,0,0,1-4.42-4.32c-.66-.82-1.56-1.89-2.19-2.74a7.61,7.61,0,0,0,2.11,1.83,31.59,31.59,0,0,0,5.41,5.87" fill="#323a4a"/><path d="M44.09,108.48a20.56,20.56,0,0,1-3.78-1.57A30.77,30.77,0,0,1,35,101.1,25.21,25.21,0,0,0,39.64,103a26.27,26.27,0,0,0,4.44,5.45" fill="#323a4a"/><path d="M49.92,109.86a47.18,47.18,0,0,1-5.09-1.16,25.64,25.64,0,0,1-4.27-5.4,57.84,57.84,0,0,0,6.23,1.42,23.31,23.31,0,0,0,3.12,5.14" fill="#323a4a"/><path d="M56.82,110.71c-2.08-.16-4.09-.4-6-.7a23.3,23.3,0,0,1-2.91-5.1c2.31.37,4.77.65,7.32.85a29.65,29.65,0,0,0,1.56,4.95" fill="#d64f4f"/><path d="M64.33,111c-2.19,0-4.36-.06-6.47-.2a33.22,33.22,0,0,1-1.33-4.93c2.58.17,5.25.25,7.93.24,0,1.91-.09,3.55-.14,4.88" fill="#323a4a"/><path d="M72,110.64c-2.15.19-4.35.31-6.54.34.14-1.34.27-3,.38-4.89,2.69,0,5.38-.18,8-.42a26.87,26.87,0,0,1-1.86,5" fill="#73c9ff"/><path d="M79.09,109.64q-1.76.35-3.77.62-1.13.15-2.29.27a25.32,25.32,0,0,0,2.1-5q1.42-.15,2.81-.33,2.46-.33,4.62-.76a23.61,23.61,0,0,1-3.47,5.19" fill="#323a4a"/><path d="M84.62,108.16a36.07,36.07,0,0,1-4.63,1.3,24,24,0,0,0,3.68-5.23,44.23,44.23,0,0,0,5.68-1.59,27.4,27.4,0,0,1-4.72,5.52" fill="#323a4a"/><path d="M88.29,106.33a13.77,13.77,0,0,1-3,1.58,28.11,28.11,0,0,0,4.87-5.58,16.88,16.88,0,0,0,3.71-1.94,32.6,32.6,0,0,1-5.55,5.94" fill="#323a4a"/><path d="M94.17,100.46a38.75,38.75,0,0,1-4.48,4.7l-.87.76A33.36,33.36,0,0,0,94.29,100a6,6,0,0,0,1-1l-1.12,1.44" fill="#323a4a"/><path d="M43.06,109c-.86-.59-2-1.36-2.84-2q.28.22.62.43,1.07.83,2.21,1.56" fill="#323a4a"/><path d="M50.58,112.69c-.46-.14-.88-.3-1.28-.46a39,39,0,0,1-4.38-2.12,29.58,29.58,0,0,1-3.6-2.39,19.68,19.68,0,0,0,3.62,1.51,21.66,21.66,0,0,0,5.64,3.46" fill="#323a4a"/><path d="M54.48,113.61a31.61,31.61,0,0,1-3.41-.77,20.38,20.38,0,0,1-5.43-3.4,45.15,45.15,0,0,0,4.87,1.11,13.41,13.41,0,0,0,4,3.06" fill="#323a4a"/><path d="M59.11,114.18c-1.39-.11-2.74-.27-4-.47a12.43,12.43,0,0,1-3.7-3c1.8.29,3.72.51,5.71.67a8.64,8.64,0,0,0,2,2.82" fill="#323a4a"/><path d="M64.14,114.37c-1.47,0-2.92,0-4.33-.13a8.61,8.61,0,0,1-1.69-2.8c2,.13,4.09.2,6.19.19-.05,1.23-.11,2.16-.17,2.74" fill="#de5050"/><path d="M69.26,114.13c-1.44.13-2.91.2-4.38.23a18.57,18.57,0,0,0,.48-2.74c2.1,0,4.2-.14,6.26-.32a9,9,0,0,1-2.36,2.84" fill="#323a4a"/><path d="M74,113.47q-1.18.23-2.53.41l-1.53.18a9.53,9.53,0,0,0,2.66-2.87q1.11-.11,2.19-.26,1.92-.26,3.61-.59a15.13,15.13,0,0,1-4.4,3.13" fill="#323a4a"/><path d="M77.74,112.47a24.17,24.17,0,0,1-3.1.87,16.3,16.3,0,0,0,4.66-3.18,34.52,34.52,0,0,0,4.43-1.24,23.8,23.8,0,0,1-6,3.55" fill="#323a4a"/><path d="M86.93,107.4c-.78.54-1.8,1.27-2.6,1.77a45.4,45.4,0,0,1-6.08,3.1l-.09,0a25.07,25.07,0,0,0,6.17-3.62,13.18,13.18,0,0,0,2.89-1.52l-.3.23" fill="#323a4a"/><path d="M52.14,113.26l-1-.34.46.15.54.18" fill="#323a4a"/><path d="M57.27,114.53l-1.16-.22c-1.66-.37-1.76-.4-2.71-.67l-.32-.09q-.52-.15-1-.33a29.16,29.16,0,0,0,3.14.71,10.33,10.33,0,0,0,2.07.6" fill="#323a4a"/><path d="M60.88,115l-.68-.06c-1.2-.13-1.25-.14-1.89-.23l-.45-.07a9,9,0,0,1-2.08-.6c1.16.18,2.4.33,3.69.43a2.9,2.9,0,0,0,1.41.53" fill="#323a4a"/><path d="M64,115.11h-.44c-.94,0-1.09,0-1.63,0l-.57,0a2.21,2.21,0,0,1-1.22-.52c1.3.09,2.64.13,4,.12,0,.31-.08.47-.12.48" fill="#323a4a"/><path d="M67.21,115l-.29,0c-1.16.08-1.16.08-1.74.1l-.76,0c.12,0,.24-.17.36-.48,1.35,0,2.71-.09,4-.21a3.88,3.88,0,0,1-1.62.54" fill="#323a4a"/><path d="M71.65,114.29c-1.72.33-1.79.35-2.78.48l-1.15.14a4.84,4.84,0,0,0,1.77-.55l1.41-.17q1.24-.17,2.33-.38a12.59,12.59,0,0,1-1.58.48" fill="#323a4a"/><path d="M72.42,114.12a14.07,14.07,0,0,0,1.37-.43c.84-.18,1.61-.39,2.29-.61-1.95.61-2,.64-3.66,1" fill="#323a4a"/><line fill="none" stroke="#323a4a" stroke-linecap="round" stroke-linejoin="round" stroke-width="3" x1="64" x2="64" y1="7" y2="37"/><rect fill="#323a4a" height="6" width="10" x="59" y="33"/></g></svg>