<svg width="198" height="329" viewBox="0 0 198 329" fill="none" xmlns="http://www.w3.org/2000/svg">
    <path d="M49.8283 27.3175C55.3006 21.3185 62.8102 18.2874 73.7857 17.6466C85.5049 16.9629 111.827 17.3417 114.227 18.2285C115.082 18.5446 117.24 18.2526 119.023 17.5796C121.475 16.6548 122.967 16.8128 125.142 18.2263C126.724 19.2551 128.963 20.0963 130.119 20.0963C131.274 20.0963 131.868 20.4457 131.438 20.8727C131.007 21.2998 131.798 23.0905 133.195 24.8528C134.592 26.6151 135.824 27.7837 135.932 27.4493C136.041 27.115 137.935 28.117 140.141 29.6762C142.348 31.2349 144.162 32.0595 144.173 31.5081C144.183 30.9573 144.6 31.14 145.098 31.9148C145.597 32.6896 147.117 33.5164 148.475 33.7521C149.832 33.9874 151.677 34.8693 152.575 35.7116C153.472 36.5534 154.861 37.2457 155.661 37.2494C157.078 37.2564 171.311 50.5109 175.017 55.2743C177.198 58.0788 176.959 57.1341 179.874 74.4185C186.743 115.145 188.873 146.477 185.03 150.259C183.829 151.441 183.639 151.048 184.119 148.391C181.003 151.483 188.201 190.32 181.189 212.354C181.189 213.786 182.006 214.827 183.129 214.827C184.893 214.827 184.893 215.002 183.129 216.752C182.054 217.818 181.189 220.728 181.189 223.275C181.189 233.523 177.073 257.328 175.026 258.917C174.299 259.482 169 268.158 163.474 277.835C147.405 305.97 109.698 319.874 86.1309 306.353C71.6534 298.047 55.0333 282.053 51.6182 273.142C50.9884 271.498 48.0179 266.937 45.0176 263.005C37.7407 253.469 36.2484 250.354 33.0856 238.097C31.6084 232.371 29.8671 225.637 29.2157 223.132C27.6614 214.614 22.1832 185.74 20.3421 180.381C20.1768 180.233 19.9927 180.003 19.7893 179.684C19.8784 179.312 20.0708 179.591 20.3421 180.381C22.4868 182.304 21.472 170.58 18.351 164.098C14.8182 156.761 14.1501 152.957 12.6318 131.546C12.2737 126.494 11.5824 119.054 11.0952 115.013C9.01097 97.7174 9.93833 83.6244 13.563 77.507C15.4085 74.3928 17.2978 69.4927 17.7612 66.6181C18.2759 63.4219 20.9289 57.9416 24.5903 52.5111C27.8833 47.6271 30.5773 43.0202 30.5773 42.2738C30.5773 41.5274 31.1617 40.9166 31.8763 40.9166C32.5903 40.9166 33.7235 39.3546 34.3943 37.4461C35.5506 34.1551 42.02 29.8937 45.8596 29.8937C46.7497 29.8937 48.5358 28.7348 49.8283 27.3175Z" fill="#F5D18C"/>
    <path fill-rule="evenodd" clip-rule="evenodd" d="M78.8642 34.5716C69.1609 35.1382 62.5218 37.8179 57.6837 43.1216C56.5411 44.3746 54.962 45.3992 54.1751 45.3992C50.7805 45.3992 45.061 49.1666 44.0387 52.0761C43.4456 53.7635 42.4438 55.1443 41.8126 55.1443C41.1809 55.1443 40.6642 55.6844 40.6642 56.3443C40.6642 57.0041 38.2824 61.0771 35.3711 65.3949C32.1341 70.196 29.7887 75.0411 29.3336 77.8668C28.9239 80.4082 27.2536 84.7403 25.622 87.4935C22.4175 92.9018 21.5976 105.361 23.4403 120.652C23.871 124.224 24.4822 130.802 24.7988 135.269C26.141 154.198 26.7317 157.561 29.855 164.048C32.827 170.22 34.4715 178.196 31.9594 174.254C30.8415 172.5 27.2909 175.787 27.945 177.971C28.5176 179.881 30.6577 179.784 31.1266 177.827C31.7402 175.266 32.3567 176.976 33.9334 185.617C36.7879 201.26 36.7912 203.124 33.9639 203.846C27.4088 205.521 28.4125 214.197 35.0096 212.888C38.2141 212.253 38.4758 212.449 39.4604 216.239C40.0363 218.454 41.5757 224.407 42.8817 229.469C45.6779 240.306 46.9973 243.06 53.4306 251.49C56.0832 254.966 58.7094 258.999 59.2662 260.452C62.2854 268.331 76.979 282.47 89.7784 289.814C110.614 301.768 143.95 289.475 158.156 264.601C163.042 256.046 167.726 248.375 168.369 247.876C170.179 246.471 173.818 225.425 173.818 216.365C173.818 214.113 174.583 211.541 175.534 210.598C177.093 209.052 177.093 208.897 175.534 208.897C174.541 208.897 173.818 207.976 173.818 206.711C173.818 204.942 174.32 204.649 176.444 205.178C178.488 205.687 179.234 205.32 179.809 203.523C180.67 200.832 178.758 198.069 176.036 198.069C173.132 198.069 171.025 159.263 173.78 156.53C175.833 154.493 174.953 153.301 172.815 155.221C170.809 157.022 170.695 156.995 170.144 154.577C169.827 153.188 169.91 155.462 170.329 159.631C172.713 183.366 170.525 201.387 163.761 213.728C158.786 222.806 157.447 225.719 157.447 227.465C157.447 229.716 154.677 230.205 153.762 228.116C153.435 227.371 153.431 228.036 153.751 229.593C154.164 231.592 153.81 232.624 152.548 233.105C151.565 233.479 151.066 234.276 151.439 234.875C151.813 235.475 151.656 235.966 151.09 235.966C149.679 235.966 149.074 233.117 149.206 227.092C149.267 224.296 148.989 222.534 148.589 223.176C148.189 223.819 147.523 222.817 147.11 220.951C146.697 219.086 145.76 217.559 145.027 217.559C144.295 217.559 143.143 217.011 142.468 216.342C141.793 215.672 138.807 215.035 135.832 214.925C132.416 214.799 129.74 214.047 128.568 212.884C127.546 211.871 126.336 211.272 125.878 211.553C124.743 212.249 117.064 210.08 117.064 209.063C117.064 208.616 118.783 207.632 120.884 206.879C122.985 206.125 124.704 204.809 124.704 203.955C124.704 201.725 117.318 201.947 113.244 204.299C109.409 206.514 101.313 206.696 97.534 204.652C94.9837 203.274 86.5042 204.802 86.5042 206.64C86.5042 207.244 90.0506 208.912 94.4173 210.36C97.7193 211.456 96.6076 213.514 92.9977 212.989C90.3318 212.601 89.1371 213.13 87.0032 215.646C85.5377 217.374 83.1058 218.918 81.5998 219.077C80.0933 219.237 78.5343 219.691 78.1351 220.087C77.7359 220.483 76.1401 220.823 74.5896 220.843C70.3456 220.898 67.25 224.14 66.0314 229.808C65.4259 232.625 65.3672 234.883 65.8996 234.883C67.7256 234.883 66.8498 236.798 64.778 237.336C62.6106 237.898 62.3523 237.509 57.0969 225.783C55.7876 222.861 53.4894 219.514 51.99 218.343C50.4902 217.173 49.5132 215.568 49.8193 214.777C50.1746 213.859 49.804 213.556 48.7946 213.94C47.8592 214.296 47.2126 213.898 47.2126 212.965C47.2126 212.097 45.7768 209.421 44.022 207.017C41.1594 203.097 37.6359 193.438 35.82 184.535C33.9907 175.566 36.2473 153.496 40.2354 141.347C43.003 132.916 43.1696 131.576 41.9663 127.418C34.9227 103.074 37.7366 88.6091 49.3886 89.2609C51.7938 89.3959 53.7615 89.1169 53.7615 88.6418C53.7615 88.1666 54.8665 87.6105 56.2173 87.4063C57.5677 87.2017 58.5499 86.4371 58.4 85.7067C58.241 84.9336 59.2939 84.3789 60.9202 84.3789C62.4563 84.3789 63.4276 83.9203 63.0785 83.3604C62.708 82.7654 64.1577 82.5262 66.5614 82.7848C68.8257 83.0288 69.8461 82.9696 68.8291 82.6531C65.8409 81.7237 67.7022 79.2315 71.006 79.7379C73.881 80.179 73.8996 80.1467 71.77 78.4276C69.6236 76.6948 69.6217 76.6399 71.6802 75.1268C73.3414 73.9056 74.1054 73.8611 75.3794 74.9099C76.2623 75.637 78.0825 76.0889 79.4238 75.9146C80.7651 75.7403 82.5472 76.277 83.3842 77.1069C86.1136 79.8151 90.89 80.0283 93.3845 77.5532C94.8586 76.0908 95.1942 75.1619 94.3491 74.8824C92.5264 74.2794 92.7308 72.4684 94.6212 72.4684C95.8069 72.4684 96.0518 71.4769 95.6245 68.4082L95.0586 64.3476L97.2136 66.9838C98.8371 68.9691 99.0906 70.0615 98.2407 71.4111C97.4557 72.6579 97.481 73.8312 98.3242 75.2718C99.4473 77.1913 99.54 77.1448 99.603 74.6342C99.6684 72.0193 99.7252 71.9989 101.273 74.0288C102.166 75.2003 102.876 75.5276 102.876 74.7682C102.876 73.8796 103.667 73.6546 105.152 74.1221C107.239 74.7791 107.317 74.6309 106.081 72.341L104.733 69.8426L107.877 71.8857C109.605 73.0094 111.914 74.9402 113.008 76.1761L114.997 78.4239L114.277 75.8521C113.788 74.106 113.944 73.5181 114.765 74.0212C115.429 74.4286 115.973 75.4641 115.973 76.322C115.973 78.7322 118.104 78.1666 119.272 75.4461C120.184 73.3244 120.288 73.2893 120.083 75.1756C119.754 78.1974 121.164 80.0477 123.794 80.0477C125.176 80.0477 125.822 80.5835 125.487 81.4509C125.125 82.386 126.072 82.9388 128.328 83.1093C130.19 83.25 132.085 83.9587 132.541 84.6844C133.19 85.7176 133.845 85.7105 135.571 84.6498C138.41 82.9037 140.06 82.9227 139.376 84.6925C138.835 86.0894 144.381 88.71 147.877 88.71C148.831 88.71 151.55 89.9691 153.92 91.5082L158.228 94.3064L158.795 113.062C159.345 131.22 159.454 131.936 162.225 135.54C163.799 137.588 165.122 139.948 165.164 140.785C165.21 141.695 165.647 141.437 166.251 140.141C166.984 138.572 167.099 139.176 166.666 142.336C166.337 144.734 166.554 147.901 167.146 149.374C168.236 152.084 168.433 151.864 168.899 147.416C169.244 144.125 170.544 142.94 170.544 145.916C170.544 150.041 172.722 148.424 172.854 144.202C172.924 141.966 173.222 141.08 173.517 142.23C173.812 143.379 174.705 144.965 175.5 145.754C176.327 146.574 176.716 148.462 176.409 150.161C175.984 152.511 176.152 152.857 177.214 151.813C180.611 148.469 178.728 120.769 172.656 84.763C170.079 69.4821 170.29 70.3173 168.362 67.8379C165.085 63.6266 152.502 51.9084 151.249 51.9023C150.542 51.899 149.314 51.2869 148.521 50.5427C147.727 49.7981 146.096 49.0183 144.896 48.8104C143.695 48.6019 142.352 47.871 141.911 47.186C141.47 46.501 141.102 46.3395 141.092 46.8265C141.083 47.3139 139.479 46.5849 137.528 45.2069C135.578 43.8284 133.903 42.9425 133.807 43.2381C133.712 43.5337 132.623 42.5006 131.387 40.9425C130.152 39.3845 129.453 37.8014 129.834 37.4238C130.214 37.0463 129.689 36.7374 128.668 36.7374C127.646 36.7374 125.666 35.9937 124.267 35.0842C122.344 33.8345 121.026 33.6948 118.858 34.5124C117.281 35.1074 115.373 35.3655 114.618 35.0861C112.496 34.3021 89.225 33.9672 78.8642 34.5716ZM84.3216 37.8198C84.3216 38.4158 83.5848 38.9027 82.6842 38.9027C81.7836 38.9027 81.0473 38.4158 81.0473 37.8198C81.0473 37.2244 81.7836 36.7374 82.6842 36.7374C83.5848 36.7374 84.3216 37.2244 84.3216 37.8198ZM80.8912 45.9151C80.0121 46.7872 75.59 42.6593 75.59 40.9657C75.59 40.0823 76.767 40.6611 78.5338 42.4134C80.1525 44.0197 81.2135 45.5953 80.8912 45.9151ZM107.636 47.4262C108.238 50.5873 108.112 50.8966 106.695 49.7298C105.776 48.9733 105.073 46.6602 105.092 44.4546C105.13 39.9312 106.518 41.5517 107.636 47.4262ZM98.3629 49.2443C98.7082 51.0103 98.5238 51.0899 96.9987 49.8341C94.9125 48.1164 94.6532 46.1093 96.6 46.7526C97.3501 47.0003 98.1438 48.1216 98.3629 49.2443ZM52.67 49.1889C52.67 50.3708 48.4422 53.8374 47.7899 53.1908C47.4075 52.8109 46.6282 53.2168 46.059 54.0927C45.2783 55.294 45.1155 55.0382 45.3972 53.0539C45.602 51.6067 46.7084 50.0572 47.8558 49.6109C50.3474 48.6417 52.67 48.4385 52.67 49.1889ZM119.676 53.6086C120.04 54.5508 120.307 56.1344 120.269 57.1278C120.225 58.2959 119.819 57.9871 119.122 56.2533C118.241 54.0638 117.857 53.8653 117.025 55.1704C116.464 56.0491 115.999 56.4428 115.989 56.0449C115.98 55.647 115.675 54.5508 115.31 53.6086C114.842 52.3987 115.289 51.8961 116.831 51.8961C118.031 51.8961 119.312 52.6668 119.676 53.6086ZM55.3932 56.2182C56.4499 57.9146 54.5403 60.0084 51.8515 60.1027C49.4769 60.186 48.4088 57.5674 50.1235 55.8663C51.2241 54.7739 54.6354 55.0018 55.3932 56.2182ZM130.114 141.414C123.613 141.815 112.826 147.092 118.259 147.214C119.516 147.242 119.495 147.486 118.142 148.567C117.235 149.293 115.894 151.226 115.164 152.864C114.434 154.502 113.335 155.841 112.722 155.841C112.109 155.841 111.607 157.729 111.607 160.036C111.607 164.31 118.188 173.495 119.978 171.719C120.396 171.304 120.157 170.387 119.447 169.683C117.146 167.4 118.057 166.671 123.34 166.571L128.524 166.474L124.704 165.381L120.884 164.288L124.663 161.147C129.029 157.519 130.148 157.267 130.196 159.902C130.327 167.043 141.076 167.631 141.076 160.497C141.076 157.717 143.377 157.197 145.659 159.46C149.854 163.622 157.434 164.612 154.039 160.554C153.231 159.587 152.513 158.253 152.446 157.589C152.378 156.926 152.248 155.848 152.156 155.194C151.955 153.756 143.936 150.031 141.313 150.156C137.156 150.355 136.068 149.242 138.893 147.681C142.162 145.875 151.257 145.631 154.338 147.267C157.476 148.933 157.616 148.174 154.815 144.696C152.129 141.363 145.421 140.471 130.114 141.414ZM53.1231 144.409C48.1366 146.531 44.7822 151.146 46.3813 153.686C47.5994 155.621 47.7403 155.616 50.7008 153.525C52.3844 152.336 53.7763 151.762 53.7945 152.249C53.8126 152.736 54.2911 152.348 54.8574 151.386C55.4242 150.424 57.0052 149.753 58.3718 149.894C59.7379 150.035 62.3293 150.252 64.13 150.375C66.0214 150.504 66.7128 150.857 65.7673 151.21C64.8668 151.546 62.9023 152.317 61.4015 152.923C59.9008 153.53 58.3045 153.947 57.8542 153.851C55.5737 153.364 48.2163 164.777 49.7992 166.347C50.1779 166.723 51.3559 167.094 52.4169 167.172C53.4774 167.25 54.9835 167.704 55.7632 168.182C57.4073 169.19 57.348 169.25 58.7166 165.169C59.2929 163.451 60.9675 161.258 62.4387 160.297C64.9355 158.664 65.0649 158.673 64.3883 160.429C63.9237 161.634 64.6061 163.383 66.2888 165.301C69.5821 169.054 74.6431 167.186 75.5862 161.868L76.1358 158.769L79.7142 161.759C82.7291 164.278 83.0734 165.01 81.9006 166.412C80.4037 168.201 84.5393 168.035 89.0708 166.123C90.6871 165.441 91.0018 165.681 90.6432 167.323C90.3963 168.452 89.4872 169.214 88.6224 169.015C87.7576 168.817 87.4201 169.021 87.8722 169.47C88.3249 169.918 87.878 171.522 86.88 173.034L85.065 175.782L88.4472 173.12C94.3438 168.48 96.9681 160.781 93.5984 158.007C92.6983 157.266 91.9616 155.936 91.9616 155.053C91.9616 154.169 90.7287 152.485 89.2226 151.309C87.7161 150.133 86.7625 148.723 87.104 148.175C87.4454 147.628 87.1202 147.179 86.382 147.179C85.6433 147.179 84.0967 146.333 82.9449 145.299C80.205 142.839 58.347 142.187 53.1231 144.409ZM143.84 154.162C148.186 155.963 149.046 157.407 144.825 155.815C143.285 155.234 140.858 154.759 139.432 154.759C138.006 154.759 136.535 154.271 136.164 153.676C135.173 152.084 139.487 152.358 143.84 154.162ZM18.5435 158.446C16.7519 159.794 19.722 163.421 22.6171 163.421C23.9627 163.421 23.0674 160.053 21.5704 159.484C20.6737 159.142 20.2114 158.427 20.5433 157.893C21.3641 156.576 20.8312 156.723 18.5435 158.446ZM88.2175 163.543C88.5961 164.151 88.6783 164.873 88.3999 165.149C87.749 165.795 81.0473 159.985 81.0473 158.775C81.0473 157.756 87.1345 161.805 88.2175 163.543ZM119.787 162.345C118.697 163.54 117.568 164.282 117.279 163.995C116.546 163.268 119.268 160.172 120.641 160.172C121.261 160.172 120.877 161.15 119.787 162.345ZM108.866 214.04C108.665 215.082 108.462 216.3 108.416 216.747C108.193 218.918 106.15 217.209 106.15 214.852C106.15 213.243 106.775 212.145 107.69 212.145C108.569 212.145 109.074 212.959 108.866 214.04ZM116.846 219.941C118.424 221.506 118.613 225.547 117.064 224.597C116.464 224.229 115.424 224.264 114.753 224.676C111.197 226.856 92.3459 225.664 94.2569 223.379C95.0047 222.486 96.7093 222.117 98.5807 222.444C100.576 222.793 101.98 222.44 102.545 221.448C103.947 218.99 114.741 217.853 116.846 219.941ZM127.425 229.28C128.03 229.664 128.893 230.046 129.343 230.129C129.793 230.213 130.459 230.343 130.822 230.417C131.186 230.491 129.891 232.028 127.944 233.832C124.139 237.358 124.14 239.087 127.945 237.066C129.231 236.384 130.869 236.022 131.586 236.262C132.303 236.502 133.742 235.315 134.784 233.625C136.835 230.298 138.893 229.572 138.893 232.176C138.893 233.07 139.327 233.801 139.857 233.801C140.387 233.801 141.078 234.775 141.392 235.966C141.778 237.429 142.881 238.132 144.794 238.132C146.924 238.132 147.624 238.683 147.624 240.361C147.624 241.83 147.159 242.33 146.26 241.826C145.168 241.215 145.168 241.354 146.26 242.52C147.765 244.128 148.089 245.865 146.806 245.44C146.355 245.291 145.853 245.524 145.689 245.957C145.526 246.39 144.298 247.888 142.961 249.287C137.112 255.403 136.513 256.586 137.64 259.792C138.805 263.108 138.361 264.263 136.232 263.452C134.512 262.798 132.857 264.864 131.889 268.876C131.32 271.23 130.821 271.702 129.883 270.771C128.145 269.047 126.887 269.225 126.887 271.194C126.887 272.426 126.393 272.604 124.977 271.882C123.927 271.345 122.514 271.105 121.837 271.348C119.876 272.051 119.186 268.691 120.628 265.459C122.318 261.669 123.627 260.413 126.342 259.979C129.872 259.413 134.565 254.181 133.875 251.579C133.337 249.551 132.767 249.405 128.172 250.109C122.175 251.028 121.032 250.434 124.432 248.167C125.782 247.267 126.887 246.129 126.887 245.64C126.887 244.484 116.855 248.773 115.423 250.54C112.294 254.402 106.419 253.218 96.091 246.643C93.2451 244.832 90.2922 243.573 89.5292 243.847C88.7074 244.141 89.3649 244.914 91.1426 245.743C94.3949 247.258 94.5931 247.663 93.1725 249.887C92.5241 250.902 91.1794 251.127 88.8234 250.613C85.9379 249.984 85.4126 250.186 85.4126 251.927C85.4126 254.786 91.4702 261.289 93.4366 260.54C95.3074 259.828 101.605 264.16 101.051 265.778C100.621 267.037 105.012 267.109 107.024 265.875C107.744 265.434 108.333 265.513 108.333 266.052C108.333 267.449 104.079 271.086 103.322 270.335C102.441 269.461 96.3273 271.691 96.3273 272.886C96.3273 273.423 95.836 273.863 95.2358 273.863C94.6356 273.863 94.1442 272.871 94.1442 271.659C94.1442 269.784 93.8162 269.63 91.9386 270.626C89.2527 272.053 87.5958 271.198 87.5958 268.385C87.5958 267.118 86.837 266.27 85.6858 266.249C83.0524 266.201 79.9558 263.695 79.9558 261.61C79.9558 260.659 78.4889 257.415 76.6968 254.398C72.1238 246.705 71.6754 244.129 74.0902 239.434C77.4365 232.929 78.1546 232.546 81.4064 235.538C83.5389 237.499 84.9953 238.005 87.0443 237.495C88.6377 237.098 90.4937 237.372 91.4301 238.143C93.0011 239.437 93.0789 239.346 93.044 236.267C93.0393 235.838 92.0633 235.472 90.8752 235.455C89.6872 235.438 88.7088 235.059 88.7012 234.613C88.6935 234.166 88.6873 233.301 88.6873 232.691C88.6873 230.568 94.7607 229.167 106.15 228.661C112.453 228.382 117.848 227.929 118.138 227.656C118.775 227.056 125.876 228.298 127.425 229.28ZM95.2358 239.092C95.2358 240.203 96.6196 240.729 102.814 241.973C106.118 242.636 106.379 242.535 104.969 241.136C103.024 239.207 95.2358 237.571 95.2358 239.092Z" fill="#D43845"/>
</svg>
